<svg width="15" height="19" viewBox="0 0 15 19" fill="none" xmlns="http://www.w3.org/2000/svg">
<path d="M14.8085 9.21906C14.8559 9.13191 14.8821 9.03265 14.8845 8.93096V8.93096C14.8824 8.77265 14.8239 8.62164 14.7216 8.51083L10.8897 4.36945C10.6739 4.13741 10.3288 4.14279 10.119 4.38146C9.90916 4.62012 9.91402 5.0017 10.1298 5.23374L13.0716 8.40279H4.53938C4.23962 8.40279 3.99661 8.67151 3.99661 9.00299C3.99661 9.33447 4.23962 9.60319 4.53938 9.60319H12.9848L10.1298 12.7842C9.91702 13.0196 9.91702 13.4012 10.1298 13.6365C10.3427 13.8719 10.6877 13.8719 10.9006 13.6365L14.6239 9.48315C14.7072 9.41667 14.7713 9.32495 14.8085 9.21906L14.8085 9.21906ZM5.08214 16.8056H1.82556C1.5258 16.8056 1.28279 16.5369 1.28279 16.2054V1.8006V1.8006C1.28279 1.46912 1.5258 1.2004 1.82556 1.2004H5.08214C5.3819 1.2004 5.6249 0.93168 5.6249 0.600199C5.6249 0.268719 5.3819 0 5.08214 0H1.82556C0.926277 0 0.197266 0.806156 0.197266 1.8006V16.2054V16.2054C0.197266 17.1998 0.926277 18.006 1.82556 18.006H5.08214C5.3819 18.006 5.6249 17.7373 5.6249 17.4058C5.6249 17.0743 5.3819 16.8056 5.08214 16.8056Z" fill="currentColor" />
</svg>
